<svg xmlns="http://www.w3.org/2000/svg" xmlns:xlink="http://www.w3.org/1999/xlink" width="500" zoomAndPan="magnify" viewBox="0 0 375 374.999991" height="500" preserveAspectRatio="xMidYMid meet" version="1.2"><defs/><g id="d91bae8339"><g style="fill:#0099f0;fill-opacity:1;"><g transform="translate(-24.873865, 350.63983)"><path style="stroke:none" d="M 138.03125 -330.015625 C 146.25 -330.015625 152.976562 -327.46875 158.21875 -322.375 C 163.457031 -317.28125 166.078125 -310.625 166.078125 -302.40625 C 166.078125 -301.28125 166.078125 -299.863281 166.078125 -298.15625 C 166.078125 -296.457031 165.929688 -292.914062 165.640625 -287.53125 C 165.359375 -282.15625 164.796875 -272.957031 163.953125 -259.9375 C 163.097656 -246.625 162.382812 -235.648438 161.8125 -227.015625 C 161.25 -218.378906 160.828125 -210.734375 160.546875 -204.078125 C 160.265625 -197.429688 160.050781 -190.847656 159.90625 -184.328125 C 159.769531 -177.816406 159.703125 -170.03125 159.703125 -160.96875 C 159.421875 -152.195312 158.925781 -145.898438 158.21875 -142.078125 C 157.507812 -138.253906 156.019531 -134.785156 153.75 -131.671875 C 147.519531 -123.742188 139.59375 -119.78125 129.96875 -119.78125 C 118.351562 -119.78125 109.859375 -124.59375 104.484375 -134.21875 C 102.785156 -137.050781 101.582031 -140.585938 100.875 -144.828125 C 100.164062 -149.078125 99.8125 -155.453125 99.8125 -163.953125 C 99.8125 -176.410156 100.164062 -190.566406 100.875 -206.421875 C 101.582031 -222.273438 102.570312 -237.707031 103.84375 -252.71875 C 105.125 -267.726562 106.328125 -280.046875 107.453125 -289.671875 C 108.585938 -297.035156 109.648438 -302.695312 110.640625 -306.65625 C 111.628906 -310.625 112.972656 -314.164062 114.671875 -317.28125 C 119.492188 -325.769531 127.28125 -330.015625 138.03125 -330.015625 Z M 256.109375 -236.578125 L 254.421875 -282.03125 C 254.128906 -285.144531 253.910156 -288.1875 253.765625 -291.15625 C 253.628906 -294.125 253.421875 -297.164062 253.140625 -300.28125 C 252.859375 -302.550781 252.71875 -304.601562 252.71875 -306.4375 C 252.71875 -308.28125 252.71875 -309.910156 252.71875 -311.328125 C 252.71875 -319.253906 255.546875 -325.835938 261.203125 -331.078125 C 266.867188 -336.316406 274.09375 -338.9375 282.875 -338.9375 C 294.195312 -338.9375 302.832031 -334.546875 308.78125 -325.765625 C 310.195312 -323.785156 311.257812 -321.378906 311.96875 -318.546875 C 312.675781 -315.710938 313.3125 -310.753906 313.875 -303.671875 C 314.445312 -296.597656 315.15625 -285.703125 316 -270.984375 C 316.570312 -260.222656 317.140625 -248.1875 317.703125 -234.875 C 318.265625 -221.570312 318.6875 -209.113281 318.96875 -197.5 C 319.257812 -185.894531 319.40625 -176.691406 319.40625 -169.890625 C 319.40625 -136.765625 316.570312 -108.59375 310.90625 -85.375 C 305.238281 -62.15625 296.035156 -41.34375 283.296875 -22.9375 C 277.921875 -14.726562 271.617188 -7.15625 264.390625 -0.21875 C 257.171875 6.71875 250.734375 11.601562 245.078125 14.4375 C 239.410156 17.269531 233.601562 18.6875 227.65625 18.6875 C 218.3125 18.6875 210.453125 16.066406 204.078125 10.828125 C 197.710938 5.585938 194.53125 -0.707031 194.53125 -8.0625 C 194.53125 -12.882812 195.445312 -16.707031 197.28125 -19.53125 C 199.125 -22.363281 202.878906 -26.332031 208.546875 -31.4375 C 216.753906 -38.507812 224.609375 -47.78125 232.109375 -59.25 C 239.617188 -70.71875 245.070312 -81.972656 248.46875 -93.015625 C 251.582031 -102.640625 254.054688 -115.097656 255.890625 -130.390625 C 257.734375 -145.679688 258.65625 -160.40625 258.65625 -174.5625 C 258.65625 -176.832031 258.65625 -178.882812 258.65625 -180.71875 C 258.65625 -182.5625 258.582031 -185.320312 258.4375 -189 C 258.300781 -192.6875 258.019531 -198.207031 257.59375 -205.5625 C 257.175781 -212.925781 256.679688 -223.265625 256.109375 -236.578125 Z M 256.109375 -236.578125 "/></g></g></g></svg>